<?xml version="1.0" standalone="no"?><!DOCTYPE svg PUBLIC "-//W3C//DTD SVG 1.1//EN" "http://www.w3.org/Graphics/SVG/1.1/DTD/svg11.dtd"><svg t="1722905855598" class="icon" viewBox="0 0 1024 1024" version="1.1" xmlns="http://www.w3.org/2000/svg" p-id="1595" xmlns:xlink="http://www.w3.org/1999/xlink" width="200" height="200"><path d="M544.11 62c162.44 1.888 363.616 77.072 359.722 260.056-7.688 82.84-75.378 144.5-162.44 148.376-71.586 0-133.488-38.484-156.65-111.68-11.582-52.012-1.894-100.142 19.37-146.386-110.224 19.292-177.914 105.912-206.968 206.156l-7.688 40.478-3.894 19.294c-9.682 130.972 27.06 213.814 119.91 289 15.472 11.538 25.158 17.306 29.054 36.6s0 36.6-7.8 53.902l-1.896 3.878v1.89h1.896v3.776h1.896v1.89h1.896v1.89h1.902v1.88h7.584l1.898-1.888c30.952-28.938 30.952-94.374 30.952-127.094-1.898-125.2-116.016-223.462-98.642-352.546 7.688-53.9 46.426-119.434 96.744-146.384 1.898-1.89 1.898-1.89 3.896-1.89a283.322 283.322 0 0 0-63.8 150.264c-1.896 61.656 19.37 119.436 46.424 175.328 36.744 69.318 69.6 148.376 52.216 227.336l-1.894 1.89h1.894c85.064-69.312 98.642-182.984 108.328-283.126 0-1.89 1.898-5.77 3.896-5.77 11.578-1.888 19.368 17.306 25.16 23.07 50.314 63.55 100.536 125.21 152.752 186.864l11.584 13.528 11.588 13.522c-79.272 125.2-208.864 206.156-363.616 215.8-245.6 3.876-455.968-192.732-458.366-425.738C98.624 279.694 294.71 69.658 544.11 62z m0 0" fill="#006953" p-id="1596"></path></svg>